<svg xmlns="http://www.w3.org/2000/svg" viewBox="0 0 800 800">
  <defs>
    <linearGradient id="bg" x1="0" y1="0" x2="1" y2="1">
      <stop offset="0" stop-color="#0d1f3c"/>
      <stop offset="1" stop-color="#06101f"/>
    </linearGradient>
    <linearGradient id="lens" x1="0" y1="0" x2="1" y2="1">
      <stop offset="0" stop-color="#dff7ff"/>
      <stop offset="0.45" stop-color="#8fdcff"/>
      <stop offset="1" stop-color="#1e3a52"/>
    </linearGradient>
  </defs>
  <rect width="800" height="800" fill="url(#bg)"/>
  <path d="M72 423c95-102 184-129 273-77M728 423c-95-102-184-129-273-77" fill="none" stroke="#00E676" stroke-width="18" stroke-linecap="round" opacity="0.8"/>
  <path d="M326 382c39-18 109-18 148 0" stroke="#00E676" stroke-width="24" stroke-linecap="round"/>
  <path d="M179 356c80-82 201-61 235 25 28 71-24 155-121 163-87 8-155-36-177-98-13-38 14-72 63-90Z" fill="url(#lens)" stroke="#F8FAFC" stroke-width="12"/>
  <path d="M621 356c-80-82-201-61-235 25-28 71 24 155 121 163 87 8 155-36 177-98 13-38-14-72-63-90Z" fill="url(#lens)" stroke="#F8FAFC" stroke-width="12"/>
  <path d="M185 394c57-38 124-44 177-12M438 382c53-32 120-26 177 12" fill="none" stroke="#F8FAFC" stroke-width="6" opacity="0.5"/>
  <path d="M126 596c105 37 228 31 326-18 80-40 153-47 236-12" fill="none" stroke="#00E676" stroke-width="6" opacity="0.35"/>
  <path d="M103 637c121 32 245 24 339-19 83-38 156-42 256-7" fill="none" stroke="#00E676" stroke-width="4" opacity="0.25"/>
  <circle cx="155" cy="173" r="62" fill="#00E676" opacity="0.12"/>
  <circle cx="641" cy="210" r="97" fill="#00E676" opacity="0.08"/>
</svg>
