<svg xmlns="http://www.w3.org/2000/svg" viewBox="0 0 800 800">
  <defs>
    <linearGradient id="bg" x1="0" y1="0" x2="1" y2="1">
      <stop offset="0" stop-color="#0d1f3c"/>
      <stop offset="1" stop-color="#060f1e"/>
    </linearGradient>
    <linearGradient id="shell" x1="0" y1="0" x2="1" y2="1">
      <stop offset="0" stop-color="#F8FAFC"/>
      <stop offset="0.5" stop-color="#b8c5d4"/>
      <stop offset="1" stop-color="#162436"/>
    </linearGradient>
  </defs>
  <rect width="800" height="800" fill="url(#bg)"/>
  <path d="M130 434c28-149 151-254 322-254 125 0 231 59 292 164 27 47 4 107-48 125-115 40-269 31-373 102-38 26-88 26-126-4-44-35-77-81-67-133Z" fill="url(#shell)" stroke="#F8FAFC" stroke-width="10"/>
  <path d="M211 424c55-104 145-161 270-166" fill="none" stroke="#00E676" stroke-width="20" stroke-linecap="round"/>
  <path d="M332 505c72-44 161-67 281-70" fill="none" stroke="#00E676" stroke-width="18" stroke-linecap="round"/>
  <path d="M364 235c-19 48-24 112-8 194M486 234c21 58 28 121 19 189M590 276c38 50 59 98 68 151" stroke="#0A1628" stroke-width="13" stroke-linecap="round" opacity="0.7"/>
  <path d="M193 526c46 87 146 122 242 80" fill="none" stroke="#1e3a52" stroke-width="14" stroke-linecap="round"/>
  <circle cx="129" cy="200" r="70" fill="#00E676" opacity="0.11"/>
  <circle cx="643" cy="594" r="110" fill="#00E676" opacity="0.08"/>
  <path d="M88 641c185-58 400-50 625 11" stroke="#00E676" stroke-width="5" opacity="0.32"/>
</svg>
