<svg xmlns="http://www.w3.org/2000/svg" viewBox="0 0 800 800">
  <defs>
    <linearGradient id="bg" x1="0" y1="0" x2="1" y2="1">
      <stop offset="0" stop-color="#10223d"/>
      <stop offset="1" stop-color="#060f1e"/>
    </linearGradient>
    <linearGradient id="glove" x1="0" y1="0" x2="1" y2="1">
      <stop offset="0" stop-color="#263c57"/>
      <stop offset="0.55" stop-color="#0A1628"/>
      <stop offset="1" stop-color="#020713"/>
    </linearGradient>
  </defs>
  <rect width="800" height="800" fill="url(#bg)"/>
  <path d="M170 248c38-34 91-25 111 19 26-37 86-33 107 14 30-25 85-9 100 37 29-17 78 0 89 45 16 66-28 149-111 190-95 47-219 28-290-42-75-75-69-207-6-263Z" fill="url(#glove)" stroke="#F8FAFC" stroke-width="9"/>
  <path d="M248 494c61 50 148 62 226 18" fill="none" stroke="#00E676" stroke-width="18" stroke-linecap="round"/>
  <path d="M186 557l272 100c30 11 64-4 76-35l15-39-377-139-15 39c-12 31 4 64 33 74Z" fill="#00E676" stroke="#F8FAFC" stroke-width="8"/>
  <path d="M273 264l-48 173M385 283l-61 188M488 334l-73 167" stroke="#1e3a52" stroke-width="14" stroke-linecap="round"/>
  <path d="M315 609l56 20M426 648l48 18" stroke="#0A1628" stroke-width="12" stroke-linecap="round"/>
  <circle cx="616" cy="185" r="95" fill="#00E676" opacity="0.1"/>
  <path d="M92 648c194-53 405-49 622 15" fill="none" stroke="#00E676" stroke-width="5" opacity="0.35"/>
</svg>
