<svg xmlns="http://www.w3.org/2000/svg" viewBox="0 0 800 800">
  <defs>
    <linearGradient id="bg" x1="0" y1="0" x2="1" y2="1">
      <stop offset="0" stop-color="#0d1f3c"/>
      <stop offset="0.6" stop-color="#0A1628"/>
      <stop offset="1" stop-color="#060f1e"/>
    </linearGradient>
    <linearGradient id="grip" x1="0" y1="0" x2="1" y2="1">
      <stop offset="0" stop-color="#00E676"/>
      <stop offset="1" stop-color="#007a43"/>
    </linearGradient>
  </defs>
  <rect width="800" height="800" fill="url(#bg)"/>
  <circle cx="205" cy="196" r="83" fill="#00E676" opacity="0.1"/>
  <ellipse cx="359" cy="282" rx="154" ry="222" transform="rotate(-28 359 282)" fill="none" stroke="#F8FAFC" stroke-width="18"/>
  <ellipse cx="359" cy="282" rx="120" ry="184" transform="rotate(-28 359 282)" fill="none" stroke="#00E676" stroke-width="6" opacity="0.9"/>
  <g stroke="#94a3b8" stroke-width="4" opacity="0.85">
    <path d="M245 160l226 378"/>
    <path d="M283 131l226 378"/>
    <path d="M322 112l226 378"/>
    <path d="M363 105l226 378"/>
    <path d="M207 300l319-177"/>
    <path d="M222 354l337-186"/>
    <path d="M249 404l330-183"/>
    <path d="M289 447l295-164"/>
  </g>
  <path d="M454 473l153 211" stroke="#F8FAFC" stroke-width="26" stroke-linecap="round"/>
  <path d="M532 576l91 126" stroke="url(#grip)" stroke-width="46" stroke-linecap="round"/>
  <circle cx="589" cy="237" r="48" fill="#d7ff50" stroke="#F8FAFC" stroke-width="8"/>
  <path d="M552 237c29-18 55-17 75 0M561 266c22-21 48-31 76-30" fill="none" stroke="#8ab000" stroke-width="5"/>
  <path d="M100 612c170-35 343-35 593 0" stroke="#00E676" stroke-width="5" opacity="0.35"/>
</svg>
